<?xml version="1.0" encoding="UTF-8" standalone="no"?>
<!-- Created with Inkscape (http://www.inkscape.org/) -->

<svg
   xmlns:dc="http://purl.org/dc/elements/1.1/"
   xmlns:cc="http://creativecommons.org/ns#"
   xmlns:rdf="http://www.w3.org/1999/02/22-rdf-syntax-ns#"
   xmlns:svg="http://www.w3.org/2000/svg"
   xmlns="http://www.w3.org/2000/svg"
   xmlns:sodipodi="http://sodipodi.sourceforge.net/DTD/sodipodi-0.dtd"
   xmlns:inkscape="http://www.inkscape.org/namespaces/inkscape"
   width="210mm"
   height="297mm"
   viewBox="0 0 744.09448819 1052.3622047"
   id="svg2"
   version="1.1"
   inkscape:version="0.91 r13725"
   sodipodi:docname="wonderful Indonesia.svg">
  <defs
     id="defs4">
    <clipPath
       id="clipPath4150"
       clipPathUnits="userSpaceOnUse">
      <path
         inkscape:connector-curvature="0"
         id="path4152"
         d="m 0,595.28 841.89,0 L 841.89,0 0,0 0,595.28 Z" />
    </clipPath>
    <filter
       inkscape:collect="always"
       style="color-interpolation-filters:sRGB"
       id="filter4766"
       x="-0.50922336"
       width="2.0184467"
       y="-0.7705325"
       height="2.541065">
      <feGaussianBlur
         inkscape:collect="always"
         stdDeviation="148.51307"
         id="feGaussianBlur4768" />
    </filter>
  </defs>
  <sodipodi:namedview
     id="base"
     pagecolor="#aeaeae"
     bordercolor="#666666"
     borderopacity="1.0"
     inkscape:pageopacity="0"
     inkscape:pageshadow="2"
     inkscape:zoom="0.175"
     inkscape:cx="-641.82772"
     inkscape:cy="472.5547"
     inkscape:document-units="px"
     inkscape:current-layer="layer2"
     showgrid="false"
     showborder="false"
     inkscape:window-width="1360"
     inkscape:window-height="706"
     inkscape:window-x="-8"
     inkscape:window-y="-8"
     inkscape:window-maximized="1" />
  <metadata
     id="metadata7">
    <rdf:RDF>
      <cc:Work
         rdf:about="">
        <dc:format>image/svg+xml</dc:format>
        <dc:type
           rdf:resource="http://purl.org/dc/dcmitype/StillImage" />
        <dc:title></dc:title>
      </cc:Work>
    </rdf:RDF>
  </metadata>
  <g
     inkscape:groupmode="layer"
     id="layer2"
     inkscape:label="bg"
     style="display:inline">
    <rect
       style="opacity:1;fill:#d5d5d5;fill-opacity:1;stroke:none;stroke-width:15;stroke-linecap:square;stroke-linejoin:round;stroke-miterlimit:4;stroke-dasharray:none;stroke-dashoffset:0;stroke-opacity:1"
       id="rect4505"
       width="1200"
       height="800"
       x="-256.16672"
       y="-37.882938"
       inkscape:export-filename="L:\design\projeck\INKSCAPE\STUDIO\ASET\upload\png\logo wonderfulINDONESIA.png"
       inkscape:export-xdpi="150"
       inkscape:export-ydpi="150" />
  </g>
  <g
     inkscape:groupmode="layer"
     id="layer3"
     inkscape:label="l"
     style="display:inline"
     sodipodi:insensitive="true">
    <ellipse
       style="opacity:1;fill:#ffffff;fill-opacity:1;stroke:none;stroke-width:15;stroke-linecap:square;stroke-linejoin:round;stroke-miterlimit:4;stroke-dasharray:none;stroke-dashoffset:0;stroke-opacity:1;filter:url(#filter4766)"
       id="path4508"
       cx="348.57141"
       cy="345.41577"
       rx="349.97546"
       ry="231.28899" />
    <ellipse
       ry="231.28899"
       rx="349.97546"
       cy="345.41577"
       cx="348.57141"
       id="ellipse4770"
       style="opacity:1;fill:#ffffff;fill-opacity:1;stroke:none;stroke-width:15;stroke-linecap:square;stroke-linejoin:round;stroke-miterlimit:4;stroke-dasharray:none;stroke-dashoffset:0;stroke-opacity:1;filter:url(#filter4766)"
       transform="matrix(1.2396192,0,0,0.91686847,5.0470413,-134.1422)" />
    <ellipse
       ry="231.28899"
       rx="349.97546"
       cy="345.41577"
       cx="348.57141"
       id="ellipse4772"
       style="opacity:1;fill:#ffffff;fill-opacity:1;stroke:none;stroke-width:15;stroke-linecap:square;stroke-linejoin:round;stroke-miterlimit:4;stroke-dasharray:none;stroke-dashoffset:0;stroke-opacity:1;filter:url(#filter4766)"
       transform="matrix(0.66225729,0,0,0.68659392,117.72745,96.82683)" />
  </g>
  <g
     inkscape:label="Indonesia"
     inkscape:groupmode="layer"
     id="layer1"
     sodipodi:insensitive="true">
    <g
       id="g4462"
       transform="translate(55.957267,-32.857143)"
       style="fill:#da7700;fill-opacity:1">
      <g
         transform="matrix(2.6371308,0,0,-2.6371308,162.51989,636.1868)"
         id="g4154"
         style="fill:#da7700;fill-opacity:1">
        <path
           inkscape:connector-curvature="0"
           id="path4156"
           style="fill:#da7700;fill-opacity:1;fill-rule:evenodd;stroke:none"
           d="M 0,0 C 1.936,0.042 3.642,0.792 5.114,2.222 6.6,3.788 7.316,5.563 7.332,7.545 7.316,9.403 6.683,11.096 5.417,12.645 4.648,13.408 3.99,13.917 3.471,14.207 l 0.268,0.087 c 0.949,0.453 1.424,1.315 1.437,2.581 L 5.163,17.51 5.114,17.521 C 5.075,17.259 4.939,17.004 4.706,16.764 4.455,16.491 4.071,16.216 3.572,15.989 2.862,15.658 1.866,15.368 0.607,15.1 l -0.815,0.038 c -1.694,0 -3.268,-0.565 -4.692,-1.701 -1.856,-1.623 -2.774,-3.548 -2.774,-5.781 l 0,-0.184 c 0,-1.584 0.53,-3.105 1.552,-4.521 1.633,-1.971 3.618,-2.965 5.948,-2.965 0.055,0 0.118,0 0.174,0.014 m -0.024,1.772 -0.016,0 c -0.752,0 -1.439,0.272 -2.081,0.823 -1.269,1.266 -1.907,2.899 -1.907,4.932 0,1.172 0.254,2.278 0.72,3.303 0.831,1.633 1.922,2.463 3.268,2.474 l 0.016,0 C 0.802,13.293 1.629,12.878 2.382,12.059 3.38,10.774 3.875,9.345 3.875,7.778 l 0,-0.467 C 3.875,6.407 3.659,5.435 3.265,4.402 2.375,2.651 1.273,1.772 -0.024,1.772" />
      </g>
      <g
         transform="matrix(2.6371308,0,0,-2.6371308,263.26646,631.83712)"
         id="g4158"
         style="fill:#da7700;fill-opacity:1">
        <path
           inkscape:connector-curvature="0"
           id="path4160"
           style="fill:#da7700;fill-opacity:1;fill-rule:evenodd;stroke:none"
           d="m 0,0 -0.271,0 c -0.831,-0.017 -1.572,0.179 -2.228,0.514 -1.589,0.857 -2.372,2.535 -2.372,5.078 l 0,0.512 c 0,0.632 0.101,1.333 0.314,2.107 0.795,2.125 2.183,3.206 4.184,3.224 l 0.333,0 C 0.919,11.417 1.851,11.033 2.747,10.238 3.469,9.446 3.916,8.854 4.018,8.438 l 0,-5.343 C 2.935,1.036 1.617,-0.017 0,0 m 10.365,-1.607 0,0.75 -0.059,0.045 -0.604,0 C 9.576,-0.802 9.385,-0.75 9.193,-0.68 7.773,-0.017 7.065,1.396 7.065,3.499 l 0,12.938 c 0,0.948 -0.202,1.698 -0.631,2.232 -0.546,0.449 -1.014,0.69 -1.465,0.69 l -1.678,-0.028 -2.414,0 -0.054,-0.052 0,-0.499 0.054,-0.055 1.219,0 c 1.279,0 1.922,-0.981 1.922,-2.958 l 0,-4.884 -1.453,1.228 c -1.178,0.645 -2.309,0.962 -3.44,0.977 l -0.557,0 C -2.813,13.073 -4.175,12.564 -5.504,11.546 -7.417,9.973 -8.347,8.016 -8.347,5.693 l 0,-0.268 c 0,-2.139 0.684,-3.901 2.081,-5.302 1.295,-1.183 3.157,-1.772 5.525,-1.786 l 0.153,0 c 0.942,0.014 1.929,0.345 2.937,1.008 0.556,0.394 1.106,0.91 1.619,1.531 l 0.05,0 0,-0.753 0.033,-0.203 c 0.297,-1.061 1.057,-1.569 2.25,-1.583 l 4.005,0" />
      </g>
      <g
         transform="matrix(2.6371308,0,0,-2.6371308,323.78782,636.07604)"
         id="g4162"
         style="fill:#da7700;fill-opacity:1">
        <path
           inkscape:connector-curvature="0"
           id="path4164"
           style="fill:#da7700;fill-opacity:1;fill-rule:evenodd;stroke:none"
           d="m 0,0 0,0.816 -0.043,0.056 -3.086,0 c -0.272,0 -0.652,0.073 -1.069,0.216 -1.365,0.492 -2.283,1.214 -2.785,2.159 l 0,0.022 c 0.924,-0.245 1.845,-0.371 2.759,-0.357 1.519,-0.014 2.801,0.311 3.816,0.97 1.709,1.207 2.602,2.993 2.602,5.323 0,1.454 -0.298,2.641 -0.918,3.578 -1.452,1.891 -3.461,2.861 -5.954,2.861 l -0.24,0 c -1.413,0 -2.852,-0.516 -4.294,-1.539 -0.352,-0.233 -0.71,-0.547 -1.024,-0.948 -0.926,-0.914 -1.393,-2.114 -1.362,-3.628 l 0,-0.561 c -0.031,-2.497 0.436,-4.549 1.362,-6.181 0.33,-0.558 0.825,-1.057 1.449,-1.497 1.532,-0.886 2.916,-1.332 4.109,-1.343 l 4.635,0 L 0,0 Z m -4.71,4.392 c -0.428,0 -0.934,0.17 -1.497,0.484 -1.289,1.036 -1.924,2.512 -1.924,4.413 0,0.899 0.157,1.765 0.509,2.612 0.782,1.514 1.751,2.271 2.944,2.288 0.573,-0.017 1.153,-0.234 1.739,-0.673 1.143,-1.075 1.729,-2.473 1.729,-4.182 0,-0.907 -0.182,-1.751 -0.506,-2.588 C -2.479,5.176 -3.478,4.392 -4.71,4.392" />
      </g>
      <g
         transform="matrix(2.6371308,0,0,-2.6371308,449.85375,580.60874)"
         id="g4166"
         style="fill:#da7700;fill-opacity:1">
        <path
           inkscape:connector-curvature="0"
           id="path4168"
           style="fill:#da7700;fill-opacity:1;fill-rule:evenodd;stroke:none"
           d="m 0,0 3.753,0 c 0.823,-0.004 1.489,-0.597 2.04,-1.766 0.283,-0.83 0.433,-1.813 0.433,-2.971 l 0,-11.483 c 0,-2.023 0.439,-3.233 1.336,-3.568 l 0.413,-0.063 1.515,0 0.071,-0.048 0,-1.117 -0.071,-0.073 -3.857,0 c -1.074,0 -1.818,0.806 -2.201,2.421 -0.178,0.791 -0.286,1.565 -0.286,2.281 l 0,11.5 c 0,1.388 -0.384,2.326 -1.134,2.808 -0.234,0.073 -0.405,0.111 -0.572,0.111 l -1.44,0 -0.046,0.067 0,1.852" />
      </g>
      <g
         transform="matrix(2.6371308,0,0,-2.6371308,421.27279,636.22293)"
         id="g4170"
         style="fill:#da7700;fill-opacity:1">
        <path
           inkscape:connector-curvature="0"
           id="path4172"
           style="fill:#da7700;fill-opacity:1;fill-rule:evenodd;stroke:none"
           d="m 0,0 -0.307,0 c -1.513,0.014 -2.842,0.558 -3.949,1.663 -1.074,1.225 -1.6,2.599 -1.6,4.172 l 0,5.519 c 0,1.569 -0.325,2.476 -0.941,2.755 0,0.083 -0.224,0.161 -0.675,0.241 l -1.733,0 -0.052,0.042 0,0.801 0.052,0.053 4.125,0 c 1.163,0 1.906,-0.834 2.246,-2.494 0.044,-0.198 0.063,-0.401 0.063,-0.617 l 0,-5.902 c 0,-1.954 0.68,-3.226 2.074,-3.812 C -0.108,2.215 0.485,2.11 1.09,2.117 1.984,2.11 3,2.679 4.099,3.798 4.527,4.301 4.72,4.792 4.72,5.302 l 0,9.891 0.049,0.053 3.023,0 0.06,-0.053 0,-11.608 C 7.834,2.599 8.225,1.933 9.048,1.594 l 0.593,-0.08 1.399,0 0.049,-0.046 0,-1.315 -0.049,-0.038 -3.778,0 C 6.293,0.107 5.557,0.631 5.046,1.687 L 4.866,2.204 C 3.237,0.757 1.608,0.014 0,0" />
      </g>
      <g
         transform="matrix(2.6371308,0,0,-2.6371308,383.5779,578.39408)"
         id="g4174"
         style="fill:#da7700;fill-opacity:1">
        <path
           inkscape:connector-curvature="0"
           id="path4176"
           style="fill:#da7700;fill-opacity:1;fill-rule:evenodd;stroke:none"
           d="m 0,0 3.941,0 0.025,-0.031 0,-1.27 -0.025,-0.031 -1.642,0 C 1.682,-1.353 1.225,-1.736 0.91,-2.557 0.799,-2.93 0.736,-3.487 0.75,-4.213 l 0,-2.222 2.424,0 0.039,-0.042 0,-1.506 -0.039,-0.039 -2.424,0 0,-10.558 c -0.014,-1.563 -0.599,-2.613 -1.739,-3.147 -0.347,-0.126 -0.662,-0.188 -0.919,-0.199 l -3.617,0 -0.028,0.042 0,1.633 0.028,0.052 1.611,0 c 0.942,-0.021 1.507,0.61 1.675,1.859 l 0.031,0.422 0,9.889 -3.317,0 -0.028,0.007 0,1.524 0.028,0.046 2.86,0 0.457,0.017 0,3.188 c -0.024,0.701 0.175,1.434 0.557,2.212 C -1.214,-0.345 -0.684,-0.003 0,0" />
      </g>
      <g
         transform="matrix(2.6371308,0,0,-2.6371308,360.73613,597.79123)"
         id="g4178"
         style="fill:#da7700;fill-opacity:1">
        <path
           inkscape:connector-curvature="0"
           id="path4180"
           style="fill:#da7700;fill-opacity:1;fill-rule:evenodd;stroke:none"
           d="M 0,0 0.223,0.031 C 0.429,0.076 0.598,-0.161 0.77,-0.687 L 0.754,-0.799 C 0.706,-0.848 0.475,-0.949 0.129,-1.074 -0.098,-1.183 -0.345,-1.295 -0.589,-1.409 -0.848,-1.524 -1.284,-1.79 -1.875,-2.223 c -0.414,-0.219 -0.796,-0.54 -1.161,-0.948 -0.377,-0.552 -0.539,-1.043 -0.51,-1.5 l 0,-9.86 -0.029,-0.042 -3.006,0 -0.032,0.042 0,11.123 c 0,1.168 -0.363,1.911 -1.133,2.225 -0.216,0.042 -0.436,0.08 -0.628,0.08 l -1.399,0 -0.021,0.032 0,1.34 0.021,0.013 3.673,0 c 0.844,0 1.519,-0.401 2.044,-1.165 0.227,-0.436 0.325,-0.854 0.325,-1.214 0.823,0.688 1.695,1.267 2.592,1.72 C -0.689,-0.154 -0.293,-0.008 0,0" />
      </g>
      <g
         transform="matrix(2.6371308,0,0,-2.6371308,214.3817,595.65911)"
         id="g4182"
         style="fill:#da7700;fill-opacity:1">
        <path
           inkscape:connector-curvature="0"
           id="path4184"
           style="fill:#da7700;fill-opacity:1;fill-rule:evenodd;stroke:none"
           d="M 0,0 0.305,0 C 1.841,0 3.148,-0.54 4.283,-1.674 5.344,-2.885 5.912,-4.283 5.912,-5.87 l 0,-5.543 c 0,-1.576 0.303,-2.497 0.924,-2.779 -0.021,-0.084 0.232,-0.151 0.67,-0.22 l 1.741,0 0.05,-0.053 0,-0.802 -0.05,-0.059 -4.155,0 c -1.138,0.011 -1.907,0.85 -2.229,2.501 -0.045,0.191 -0.08,0.393 -0.073,0.617 l 0,5.95 c -0.007,1.975 -0.708,3.227 -2.102,3.837 -0.58,0.186 -1.166,0.293 -1.818,0.293 -1.148,-0.045 -2.285,-0.606 -3.413,-1.733 -0.414,-0.513 -0.62,-1.012 -0.62,-1.521 l 0,-9.944 -0.043,-0.053 -3.019,0 -0.08,0.053 0,11.664 c -0.019,0.997 -0.408,1.678 -1.195,2.023 l -0.595,0.09 -1.43,0 -0.038,0.028 0,1.326 0.038,0.059 3.823,0 c 0.966,0 1.706,-0.526 2.253,-1.618 l 0.15,-0.52 C -3.659,-0.792 -1.887,-0.014 0,0" />
      </g>
      <g
         transform="matrix(2.6371308,0,0,-2.6371308,98.260394,596.54229)"
         id="g4186"
         style="fill:#da7700;fill-opacity:1">
        <path
           inkscape:connector-curvature="0"
           id="path4188"
           style="fill:#da7700;fill-opacity:1;fill-rule:evenodd;stroke:none"
           d="m 0,0 4.112,0 c 0.991,0 1.807,-0.886 2.404,-2.679 l 3.289,-7.37 c 0.108,0.087 1.195,2.669 3.244,7.719 0.171,0.384 0.249,0.667 0.249,0.858 l 0,0.084 c 0,0.352 -0.239,0.597 -0.703,0.711 l -0.997,0 -0.079,0.067 0,0.568 0.079,0.042 4.133,0 0.028,-0.031 0.031,0 C 12.919,-7.146 10.869,-12.1 9.623,-14.849 l -0.334,-0.198 c -0.362,0.014 -0.702,0.491 -1.012,1.43 -2.895,6.39 -4.726,10.272 -5.445,11.671 -0.265,0.307 -0.586,0.512 -0.945,0.59 l -0.468,-0.032 -1.419,0 -0.056,0.07 0,1.276" />
      </g>
      <g
         transform="matrix(2.6371308,0,0,-2.6371308,72.274107,596.54229)"
         id="g4190"
         style="fill:#da7700;fill-opacity:1">
        <path
           inkscape:connector-curvature="0"
           id="path4192"
           style="fill:#da7700;fill-opacity:1;fill-rule:evenodd;stroke:none"
           d="m 0,0 4.091,0 c 0.993,0 1.793,-0.886 2.425,-2.679 l 3.282,-7.37 c 0.115,0.087 1.189,2.654 3.253,7.719 0.144,0.384 0.249,0.667 0.249,0.858 l 0,0.084 c 0,0.352 -0.249,0.597 -0.699,0.711 l -1.029,0 -0.065,0.067 0,0.568 0.065,0.042 4.138,0 0.028,-0.031 0.038,0 C 12.9,-7.146 10.852,-12.1 9.622,-14.849 l -0.333,-0.198 c -0.36,0 -0.715,0.491 -1.033,1.43 -2.879,6.39 -4.709,10.272 -5.441,11.653 -0.255,0.325 -0.574,0.53 -0.943,0.608 l -0.447,-0.032 -1.425,0 -0.061,0.07 0,1.276" />
      </g>
    </g>
    <g
       id="g4484"
       transform="translate(-16.074132,-38.571429)">
      <g
         transform="matrix(2.6371308,0,0,-2.6371308,304.60929,739.15331)"
         id="g4194">
        <path
           inkscape:connector-curvature="0"
           id="path4196"
           style="fill:#1e1a18;fill-opacity:1;fill-rule:evenodd;stroke:none"
           d="m 0,0 c 3.206,0.038 6.027,1.252 8.503,3.651 2.362,2.526 3.565,5.407 3.571,8.637 -0.006,3.018 -1.05,5.783 -3.099,8.295 -1.26,1.23 -2.33,2.082 -3.185,2.546 l 0.439,0.15 c 1.566,0.75 2.346,2.149 2.346,4.193 l -0.026,1.043 -0.046,0.027 -0.041,0 C 8.396,28.096 8.186,27.685 7.806,27.297 7.398,26.851 6.77,26.418 5.947,26.021 4.787,25.508 3.167,25.033 1.144,24.598 l -1.355,0.058 c -2.768,0 -5.318,-0.927 -7.676,-2.765 -2.954,-2.655 -4.438,-5.78 -4.438,-9.401 l 0,-0.328 c 0,-2.57 0.83,-5.022 2.499,-7.342 C -7.161,1.607 -3.949,0 -0.167,0 L 0,0 Z m 0.087,2.892 -0.025,0 c -1.192,0 -2.319,0.446 -3.374,1.356 -2.074,2.058 -3.092,4.73 -3.092,8.016 0,1.925 0.373,3.704 1.159,5.354 1.356,2.689 3.119,4.046 5.307,4.057 l 0.025,0 C 1.472,21.664 2.782,20.987 4.021,19.647 5.64,17.569 6.439,15.225 6.449,12.654 l 0,-0.732 C 6.439,10.439 6.12,8.855 5.462,7.182 4.007,4.317 2.215,2.892 0.087,2.892" />
      </g>
      <g
         transform="matrix(2.6371308,0,0,-2.6371308,230.30364,732.59661)"
         id="g4198">
        <path
           inkscape:connector-curvature="0"
           id="path4200"
           style="fill:#1e1a18;fill-opacity:1;fill-rule:evenodd;stroke:none"
           d="m 0,0 -0.455,0 c -1.394,0 -2.592,0.269 -3.635,0.827 -2.582,1.385 -3.88,4.148 -3.88,8.28 l 0,0.821 c 0,1.035 0.192,2.182 0.554,3.425 1.26,3.484 3.523,5.217 6.778,5.221 l 0.558,0 c 1.524,-0.004 3.048,-0.635 4.513,-1.915 1.19,-1.283 1.889,-2.257 2.076,-2.905 l 0,-8.734 C 4.74,1.671 2.567,0 0,0 m 16.833,-2.637 0,1.252 -0.097,0.077 -0.947,0 c -0.23,0.007 -0.518,0.077 -0.874,0.192 -2.302,1.109 -3.462,3.384 -3.439,6.788 l 0,21.075 c -0.023,1.545 -0.367,2.762 -1.033,3.649 -0.872,0.739 -1.671,1.116 -2.375,1.119 l -2.726,-0.045 -3.945,0 -0.085,-0.084 0,-0.817 0.085,-0.087 2,0 c 2.059,0 3.112,-1.618 3.112,-4.835 l 0,-7.949 -2.379,2.017 c -1.9,1.046 -3.743,1.583 -5.591,1.583 l -0.897,0 c -2.267,0 -4.478,-0.833 -6.632,-2.493 -3.114,-2.589 -4.641,-5.763 -4.641,-9.53 l 0,-0.45 c 0,-3.484 1.138,-6.362 3.397,-8.626 2.114,-1.928 5.107,-2.895 8.999,-2.902 l 0.224,0 c 1.569,0.007 3.163,0.537 4.806,1.636 0.924,0.638 1.798,1.468 2.637,2.511 l 0.077,0 0,-1.245 0.07,-0.348 c 0.486,-1.709 1.684,-2.547 3.666,-2.554 l 6.491,0" />
      </g>
      <g
         transform="matrix(2.6371308,0,0,-2.6371308,473.58792,738.99878)"
         id="g4202">
        <path
           inkscape:connector-curvature="0"
           id="path4204"
           style="fill:#1e1a18;fill-opacity:1;fill-rule:evenodd;stroke:none"
           d="m 0,0 0,1.343 -0.096,0.084 -4.977,0 c -0.485,0 -1.053,0.108 -1.754,0.352 -2.221,0.802 -3.72,1.975 -4.525,3.495 l 0,0.042 c 1.483,-0.387 2.972,-0.592 4.479,-0.579 2.463,-0.013 4.538,0.524 6.214,1.594 2.818,1.943 4.194,4.866 4.194,8.647 0,2.369 -0.456,4.304 -1.436,5.849 -2.411,3.073 -5.639,4.605 -9.704,4.626 l -0.416,0 c -2.277,-0.021 -4.607,-0.841 -6.968,-2.501 -0.586,-0.377 -1.143,-0.896 -1.676,-1.524 -1.488,-1.5 -2.219,-3.457 -2.219,-5.934 l 0,-0.896 c 0,-4.053 0.731,-7.426 2.219,-10.074 0.562,-0.91 1.354,-1.712 2.352,-2.445 2.522,-1.43 4.768,-2.152 6.708,-2.162 l 7.509,0 L 0,0 Z m -7.635,7.15 c -0.752,-0.013 -1.566,0.255 -2.45,0.786 -2.117,1.702 -3.164,4.087 -3.164,7.161 0,1.486 0.29,2.92 0.865,4.272 1.249,2.463 2.839,3.712 4.779,3.719 0.945,-0.007 1.906,-0.363 2.825,-1.089 1.877,-1.771 2.811,-4.028 2.826,-6.833 C -1.969,13.708 -2.22,12.316 -2.774,10.98 -4.011,8.417 -5.659,7.137 -7.635,7.15" />
      </g>
      <g
         transform="matrix(2.6371308,0,0,-2.6371308,597.42495,731.06945)"
         id="g4206">
        <path
           inkscape:connector-curvature="0"
           id="path4208"
           style="fill:#1e1a18;fill-opacity:1;fill-rule:evenodd;stroke:none"
           d="M 0,0 C -0.984,-0.014 -1.774,0.355 -2.362,1.081 -2.96,1.929 -3.25,2.818 -3.234,3.736 l 0,0.021 c -0.016,0.809 0.223,1.584 0.727,2.361 0.366,0.517 0.846,1.015 1.46,1.511 0.566,0.435 1.587,0.91 3.087,1.412 1.192,0.395 2.546,0.747 4.077,1.04 l 0,-6.617 L 2.455,0.719 C 1.597,0.234 0.781,-0.014 0,0 m 14.545,-3.156 0,1.433 -0.024,0.032 -1.256,0 c -0.426,0 -0.855,0.16 -1.236,0.502 -0.302,0.299 -0.508,0.61 -0.646,0.987 -0.289,0.761 -0.424,1.562 -0.424,2.368 l 0,8.661 c 0.848,0.153 1.779,0.307 2.773,0.495 0.708,0.105 1.288,0.224 1.712,0.364 0.535,0.177 1.007,0.411 1.467,0.697 1.415,0.983 2.154,2.159 2.154,3.481 0,0.513 -0.097,1.039 -0.324,1.566 l -0.032,0 0,-0.076 C 18.701,17.025 18.604,16.687 18.44,16.3 18.064,15.571 17.332,14.978 16.219,14.57 15.675,14.423 13.928,14.05 10.959,13.433 l -0.028,0.712 c 0,0.425 -0.09,1.025 -0.241,1.844 -0.124,0.454 -0.273,0.932 -0.492,1.441 -0.726,1.681 -2.005,2.937 -3.796,3.757 -1.219,0.495 -2.298,0.739 -3.193,0.739 l -6.419,0 -0.024,-0.028 0,-2.285 L -3.21,19.6 2.134,19.429 C 2.973,19.4 3.44,19.366 3.554,19.324 4.137,19.143 4.586,18.812 4.928,18.354 5.183,17.978 5.383,17.629 5.535,17.329 5.943,16.188 6.117,15.205 6.117,14.35 l 0,-1.932 C 5.333,12.265 4.604,12.143 4,12.059 3.44,12.059 2.577,11.901 1.405,11.563 -0.07,11.109 -1.347,10.621 -2.381,10.123 -3.283,9.693 -4.082,9.209 -4.833,8.713 -6.016,7.911 -6.919,7.021 -7.575,6.049 -8.33,4.796 -8.71,3.604 -8.71,2.438 l 0,-0.108 c 0,-1.566 0.704,-2.936 2.091,-4.053 0.384,-0.275 0.772,-0.499 1.139,-0.691 1.088,-0.398 2.14,-0.596 3.199,-0.596 2.889,0 5.748,1.392 8.527,4.193 l 0.06,-0.318 c 0.122,-0.617 0.234,-1.06 0.377,-1.329 0.659,-1.817 1.824,-2.703 3.491,-2.714 l 4.347,0" />
      </g>
      <g
         transform="matrix(2.6371308,0,0,-2.6371308,534.53307,675.11534)"
         id="g4210">
        <path
           inkscape:connector-curvature="0"
           id="path4212"
           style="fill:#1e1a18;fill-opacity:1;fill-rule:evenodd;stroke:none"
           d="m 0,0 6.104,0 c 1.299,-0.003 2.407,-0.708 3.307,-2.068 0.478,-0.942 0.712,-2.062 0.712,-3.398 l 0,-13.226 c 0,-2.348 0.713,-3.715 2.159,-4.078 l 0.68,-0.09 2.476,0 0.079,-0.053 0,-1.279 -0.079,-0.091 -6.271,0 c -1.772,0 -2.962,0.921 -3.598,2.797 -0.319,0.907 -0.45,1.786 -0.45,2.63 l 0,13.21 c 0,1.607 -0.647,2.678 -1.882,3.253 -0.341,0.091 -0.647,0.126 -0.91,0.126 l -2.327,0 -0.098,0.059 0,2.142" />
      </g>
      <g
         transform="matrix(2.6371308,0,0,-2.6371308,508.08687,675.54809)"
         id="g4214">
        <path
           inkscape:connector-curvature="0"
           id="path4216"
           style="fill:#1e1a18;fill-opacity:1;fill-rule:evenodd;stroke:none"
           d="m 0,0 7.824,0 0.073,-0.094 0,-2.089 -0.073,-0.074 -7.387,0 c -1.214,0 -2.16,-0.456 -2.839,-1.405 -0.179,-0.366 -0.246,-0.688 -0.24,-0.981 l 0,-0.076 c -0.006,-1.444 1.226,-2.822 3.678,-4.112 0.693,-0.45 2.093,-1.2 4.161,-2.247 0.787,-0.502 1.686,-1.266 2.68,-2.277 1.09,-1.437 1.645,-2.672 1.645,-3.702 0,-1.865 -0.209,-2.978 -0.599,-3.331 -1.152,-1.667 -2.595,-2.761 -4.363,-3.296 -0.819,-0.219 -1.724,-0.331 -2.655,-0.331 l -4.374,0 -0.084,0.105 0,1.234 0.084,0.088 3.826,0 c 1.645,0 2.916,0.652 3.785,1.978 0.202,0.425 0.314,0.83 0.314,1.207 l 0,0.415 c 0,1.189 -0.738,2.284 -2.212,3.316 -2.319,0.953 -4.614,2.247 -6.808,3.841 -2.144,1.873 -3.213,3.68 -3.19,5.437 l 0,0.342 c -0.023,1.409 0.68,2.875 2.086,4.399 C -3.327,-0.564 -1.752,-0.014 0,0" />
      </g>
      <g
         transform="matrix(2.6371308,0,0,-2.6371308,386.74299,673.47741)"
         id="g4218">
        <path
           inkscape:connector-curvature="0"
           id="path4220"
           style="fill:#1e1a18;fill-opacity:1;fill-rule:evenodd;stroke:none"
           d="m 0,0 0.497,0 c 2.495,0 4.636,-0.924 6.44,-2.741 1.769,-1.982 2.679,-4.256 2.679,-6.83 l 0,-9.01 c 0,-2.56 0.486,-4.081 1.503,-4.541 0,-0.119 0.35,-0.234 1.1,-0.363 l 2.839,0 0.066,-0.08 0,-1.301 -0.066,-0.095 -6.771,0 c -1.862,0.015 -3.062,1.375 -3.619,4.078 -0.116,0.311 -0.149,0.649 -0.123,0.994 l 0,9.694 c -0.026,3.198 -1.155,5.259 -3.429,6.218 -0.938,0.335 -1.915,0.482 -2.94,0.493 -1.884,-0.053 -3.743,-0.998 -5.552,-2.826 -0.688,-0.816 -1.02,-1.628 -1.02,-2.459 l 0,-16.192 -0.077,-0.094 -4.935,0 -0.098,0.094 0,19.021 c 0,1.59 -0.687,2.693 -1.981,3.251 l -0.956,0.143 -2.32,0 -0.082,0.076 0,2.146 0.082,0.076 6.232,0 c 1.561,0 2.781,-0.875 3.655,-2.599 l 0.234,-0.85 C -5.954,-1.29 -3.087,-0.06 0,0" />
      </g>
      <g
         transform="matrix(2.6371308,0,0,-2.6371308,158.67495,673.47741)"
         id="g4222">
        <path
           inkscape:connector-curvature="0"
           id="path4224"
           style="fill:#1e1a18;fill-opacity:1;fill-rule:evenodd;stroke:none"
           d="m 0,0 0.518,0 c 2.492,0 4.626,-0.924 6.437,-2.741 1.783,-1.982 2.658,-4.256 2.658,-6.83 l 0,-9.01 c 0,-2.56 0.506,-4.081 1.514,-4.541 -0.01,-0.119 0.359,-0.234 1.099,-0.363 l 2.832,0 0.098,-0.08 0,-1.301 -0.098,-0.095 -6.77,0 c -1.849,0.015 -3.063,1.375 -3.638,4.078 -0.073,0.311 -0.105,0.649 -0.105,0.994 l 0,9.694 c 0,3.198 -1.151,5.259 -3.411,6.218 -0.972,0.335 -1.919,0.482 -2.941,0.493 -1.876,-0.053 -3.732,-0.998 -5.556,-2.826 -0.682,-0.816 -1.019,-1.628 -1.019,-2.459 l 0,-16.192 -0.087,-0.094 -4.925,0 -0.119,0.094 0,19.021 c 0,1.59 -0.676,2.693 -1.955,3.251 l -0.973,0.143 -2.318,0 -0.052,0.076 0,2.146 0.052,0.076 6.244,0 c 1.549,0 2.763,-0.875 3.635,-2.599 l 0.24,-0.85 C -5.956,-1.29 -3.073,-0.06 0,0" />
      </g>
      <g
         transform="matrix(2.6371308,0,0,-2.6371308,72.334497,675.11534)"
         id="g4226">
        <path
           inkscape:connector-curvature="0"
           id="path4228"
           style="fill:#1e1a18;fill-opacity:1;fill-rule:evenodd;stroke:none"
           d="M 0,0 6.102,0 C 7.428,-0.003 8.52,-0.708 9.444,-2.068 9.902,-3.01 10.131,-4.13 10.131,-5.466 l 0,-13.226 c 0,-2.348 0.732,-3.715 2.169,-4.078 l 0.674,-0.09 2.486,0 0.06,-0.053 0,-1.279 -0.06,-0.091 -6.274,0 c -1.758,0 -2.965,0.921 -3.591,2.797 -0.333,0.907 -0.473,1.786 -0.473,2.63 l 0,13.21 c 0,1.607 -0.624,2.678 -1.863,3.253 -0.366,0.091 -0.659,0.126 -0.9,0.126 l -2.359,0 -0.084,0.059 0,2.142" />
      </g>
    </g>
    <g
       id="g4450"
       transform="matrix(1.5376615,0,0,1.5376615,-198.57463,-274.478)">
      <g
         transform="matrix(2.6371308,0,0,-2.6371308,370.84881,293.26057)"
         id="g4230">
        <path
           inkscape:connector-curvature="0"
           id="path4232"
           style="fill:#37a8e6;fill-opacity:1;fill-rule:evenodd;stroke:none"
           d="m 0,0 c 0,0 1.185,3.389 2.489,9.984 1.054,5.316 0.806,10.669 0.589,14.968 -0.365,3.596 -2.633,6.474 -7.631,8.571 0,0 -4.676,1.363 -8.836,-1.144 l -2.476,-1.644 c 0,0 1.93,2.457 3.042,3.31 1.119,0.869 2.518,1.617 4.133,1.814 1.71,0.213 3.39,-0.047 5.221,-0.314 4.744,-0.568 8.714,-2.445 11.473,2.082 0,0 0.206,-5.378 -5.812,-5.235 L 2.025,32.404 C 3.078,31.426 4.3,30.17 5.099,28.759 c 3.484,-6.198 5.852,-10 2.099,-41.203 -0.934,-7.849 -4.307,-9.554 -4.336,-22.636 0,-13.115 10.248,-28.079 12.093,-30.249 1.873,-2.169 -17.707,16.558 -14.869,36.184 0,0 -5.805,-42.083 25.843,-57.192 0,0 -34.249,5.744 -33.888,46.665 0.045,6.992 1.392,11.438 3.012,16.34 -10.193,-10.399 -28.486,-13.307 -28.486,-13.307 0,0 7.121,1.949 18.569,9.978 7.1,4.995 10.628,13.567 12.225,18.966 C -1.78,-4.792 0,0 0,0" />
      </g>
      <g
         transform="matrix(2.6371308,0,0,-2.6371308,448.68293,245.93014)"
         id="g4234">
        <path
           inkscape:connector-curvature="0"
           id="path4236"
           style="fill:#f63f78;fill-opacity:1;fill-rule:evenodd;stroke:none"
           d="m 0,0 c 1.183,0.162 1.201,0.211 2.595,0.234 9.383,0.277 12.088,-5.757 12.32,-9.352 0.098,-1.454 -0.499,-5.467 -3.91,-5.902 0,0 2.068,1.01 2.173,4.029 0.181,4.427 -2.577,8.46 -11.15,8.598 -2.973,0.042 -6.587,-1.057 -9.216,-2.007 2.137,0.396 3.445,0.783 6.884,0.232 10.196,-1.669 7.416,-10.683 7.416,-10.683 0,0 1.985,8.796 -8.974,9.056 -4.896,0.108 -10.621,-2.015 -13.719,-5.013 -3.932,-3.75 -5.894,-10.718 -5.597,-16.293 0.832,-15.656 10.965,-17.497 10.965,-17.497 0,0 -5.98,-1.235 -11.556,10.286 0.354,-2.468 0.893,-4.892 1.661,-7.199 0.546,-2.473 2.811,-10.288 10.99,-19.843 -9.093,6.679 -18.145,19.536 -17.534,35.254 0.092,2.568 0.554,5.337 1.079,7.831 2.109,9.467 10.651,17.945 18.674,22.35 8.14,4.454 29.308,7.805 33.693,-7.686 0.755,-2.605 1.141,-6.92 -1.933,-9.503 -3.295,-2.794 -7.466,-0.811 -8.209,1.041 -0.743,1.873 -0.204,3.819 0.771,4.372 0.99,0.527 1.407,-0.038 1.611,-0.595 0.251,-0.58 0,-1.393 -0.483,-1.648 -0.483,-0.256 -1.264,0.165 -1.353,0.651 0,0 -0.424,-1.135 0.507,-2.203 0.921,-1.074 2.006,-0.971 3.444,-0.115 0.728,0.439 2.786,2.606 1.394,6.101 C 21.162,-2 15.259,3.083 4.451,1.219 2.991,0.98 2.344,0.8 0,0" />
      </g>
      <g
         transform="matrix(2.6371308,0,0,-2.6371308,344.14786,321.77587)"
         id="g4238">
        <path
           inkscape:connector-curvature="0"
           id="path4240"
           style="fill:#ff8700;fill-opacity:1;fill-rule:evenodd;stroke:none"
           d="m 0,0 c -10.679,-6.898 -19.752,-6.259 -24.419,-4.202 -5.009,2.184 -5.79,4.615 -5.148,5.78 0.425,0.79 1.169,0.94 1.901,0.654 0.639,-0.233 1.025,-1.123 0.673,-1.59 -0.997,-1.291 -1.936,0.129 -1.936,0.129 0,0 -0.758,-3.396 8.413,-5.405 6.848,-1.488 18.979,2.428 26.079,11.467 C 5.781,7.194 6.017,7.559 6.228,7.937 1.483,2.604 -4.739,-0.802 -7.88,-1.659 c 0,0 11.287,5.149 16.702,15.172 1.776,4.825 2.716,10.197 2.662,15.776 -0.021,1.809 -0.174,3.396 -0.436,4.794 -1.653,7.118 -5.515,9.183 -7.82,9.816 -2.166,0.713 -4.208,0.207 -4.208,0.207 0,0 2.949,2.615 8.257,0.165 5.575,-2.554 10.545,-11.377 8.996,-26.374 -4.722,-18.211 -14.008,-28.428 -32.777,-28.428 -15.934,0 -20.478,12.294 -20.478,12.294 0,0 9.327,-13.266 26.386,-7.984 C -6.613,-4.978 -3.051,-2.836 0,0" />
      </g>
      <g
         transform="matrix(2.6371308,0,0,-2.6371308,225.68425,255.51031)"
         id="g4242">
        <path
           inkscape:connector-curvature="0"
           id="path4244"
           style="fill:#6db439;fill-opacity:1;fill-rule:evenodd;stroke:none"
           d="m 0,0 c -7.695,-4.568 -12.689,-12.36 -13.087,-22.789 -0.571,-14.908 10.227,-20.283 10.227,-20.283 -13.07,4.832 -13.272,17.864 -12.324,25.68 0.948,7.829 6.603,25.903 29.061,28.564 22.444,2.637 35.581,-11.627 38.374,-16.971 2.803,-5.391 8.966,-17.651 5.165,-29.542 -3.811,-11.88 -13.888,-16.286 -13.888,-16.286 0,0 9.669,5.332 10.98,20.995 0.664,8.035 -3.328,18.493 -10.74,24.952 -1.233,1.063 -3.331,3.197 -6.551,5.246 C 36.745,-0.157 36.248,0.11 35.766,0.352 31.293,2.611 27.082,3.917 23.183,4.493 20.287,4.817 17.088,4.817 13.496,4.379 1.029,2.098 -6.784,-8.258 -8.41,-16.636 c -2.431,-12.604 3.637,-20.262 3.637,-20.262 0,0 -5.098,2.206 -5.098,16.165 0,6.645 3.284,15.046 9.871,20.733" />
      </g>
      <g
         transform="matrix(2.6371308,0,0,-2.6371308,341.56743,215.66748)"
         id="g4246">
        <path
           inkscape:connector-curvature="0"
           id="path4248"
           style="fill:#7b46d2;fill-opacity:1;fill-rule:evenodd;stroke:none"
           d="m 0,0 c -3.047,0.347 -4.826,-1.937 -5.009,-2.534 0.282,0.898 1.807,5.156 7.75,5.156 4.201,0 7.59,-3.218 7.042,-11.251 -0.282,-4.324 -1.907,-7.095 -4.203,-8.818 -3.323,-3.068 -9.616,-5.192 -17.51,-3.134 -11.018,2.864 -17.669,2.119 -19.975,-2.747 -1.999,-4.133 -0.08,-8.004 2.574,-9.032 1.269,-0.39 2.321,-0.37 3.076,0.568 0.972,1.195 0.444,2.369 0.444,2.369 -0.123,-0.468 -0.548,-0.806 -1.279,-0.634 -0.574,0.161 -0.978,0.851 -0.696,1.661 0.216,0.57 0.932,0.889 1.716,0.549 1.109,-0.502 1.577,-2.41 0.872,-4.302 -0.841,-2.166 -5.2,-3.515 -8.556,-0.956 -3.661,2.771 -4.273,7.213 -3.468,10.375 1.483,5.696 6.325,7.78 11.473,8.774 l -1.063,0.04 c -15.986,-0.107 -16.852,-12.951 -16.852,-12.951 -0.172,6.872 4.815,17.842 29.06,13.597 2.8,-0.496 5.514,-0.717 7.561,-0.698 3.495,0.278 7.228,0.762 9.265,3.218 0.561,0.776 0.901,1.671 1.029,2.441 1.057,6.026 -5.188,4.692 -5.188,4.692 0.366,0.964 2.885,3.001 5.816,1.067 0,0 -1.342,2.288 -3.879,2.55 m -32.233,-31.359 c -3.035,5.28 -0.486,12.288 7.094,13.377 10.564,1.51 13.133,-3.22 22.565,-1.978 0.58,0.073 2.47,0.329 3.264,0.941 -3.892,-1.278 -9.292,-0.24 -12.787,0.829 -5.63,1.662 -10.408,2.18 -13.837,1.5 -4.384,-0.621 -6.756,-4.012 -7.656,-5.977 -1.2,-2.708 -0.59,-6.854 1.357,-8.692" />
      </g>
    </g>
  </g>
</svg>
